<?xml version="1.0" encoding="UTF-8" standalone="no"?>
<!DOCTYPE svg PUBLIC "-//W3C//DTD SVG 1.1//EN" "http://www.w3.org/Graphics/SVG/1.1/DTD/svg11.dtd">
<svg width="100%" height="100%" viewBox="0 0 200 200" version="1.1" xmlns="http://www.w3.org/2000/svg" xmlns:xlink="http://www.w3.org/1999/xlink" xml:space="preserve" xmlns:serif="http://www.serif.com/" style="fill-rule:evenodd;clip-rule:evenodd;stroke-linejoin:round;stroke-miterlimit:1.41421;">
    <g transform="matrix(0.8,0,0,0.8,5.00145,5.00164)">
        <path d="M50,16.65C50,7.461 42.539,0 33.35,0L16.65,0C7.461,0 0,7.461 0,16.65L0,33.35C0,42.539 7.461,50 16.65,50L33.35,50C42.539,50 50,42.539 50,33.35L50,16.65Z" style="fill:white;fill-opacity:0.0196078;"/>
    </g>
    <g transform="matrix(0.8,0,0,0.8,54.9615,54.9679)">
        <path d="M50,16.65L33.35,0L16.65,0L0,16.65L0,33.35L16.65,50L33.35,50L50,33.35L50,16.65Z" style="fill:white;fill-opacity:0.0196078;"/>
    </g>
    <g transform="matrix(0.8,0,0,0.8,154.993,54.9679)">
        <path d="M50,16.65L33.35,0L16.65,0L0,16.65L0,33.35L16.65,50L33.35,50L50,33.35L50,16.65Z" style="fill-opacity:0.0196078;"/>
    </g>
    <g transform="matrix(0.8,0,0,0.8,54.9615,154.976)">
        <path d="M50,16.65L33.35,0L16.65,0L0,16.65L0,33.35L16.65,50L33.35,50L50,33.35L50,16.65Z" style="fill-opacity:0.0196078;"/>
    </g>
    <g transform="matrix(0.8,0,0,0.8,105.026,105.01)">
        <path d="M50,16.65C50,7.461 42.539,0 33.35,0L16.65,0C7.461,0 0,7.461 0,16.65L0,33.35C0,42.539 7.461,50 16.65,50L33.35,50C42.539,50 50,42.539 50,33.35L50,16.65Z" style="fill:white;fill-opacity:0.0196078;"/>
    </g>
    <g transform="matrix(0.8,0,0,0.8,5.00145,105.01)">
        <path d="M50,16.65C50,7.461 42.539,0 33.35,0L16.65,0C7.461,0 0,7.461 0,16.65L0,33.35C0,42.539 7.461,50 16.65,50L33.35,50C42.539,50 50,42.539 50,33.35L50,16.65Z" style="fill-opacity:0.0196078;"/>
    </g>
    <g transform="matrix(0.8,0,0,0.8,5.00145,105.01)">
        <path d="M50,16.65C50,7.461 42.539,0 33.35,0L16.65,0C7.461,0 0,7.461 0,16.65L0,33.35C0,42.539 7.461,50 16.65,50L33.35,50C42.539,50 50,42.539 50,33.35L50,16.65Z" style="fill-opacity:0.0196078;"/>
    </g>
    <g transform="matrix(0.8,0,0,0.8,105.026,5.00164)">
        <path d="M50,16.65C50,7.461 42.539,0 33.35,0L16.65,0C7.461,0 0,7.461 0,16.65L0,33.35C0,42.539 7.461,50 16.65,50L33.35,50C42.539,50 50,42.539 50,33.35L50,16.65Z" style="fill-opacity:0.0196078;"/>
    </g>
    <g transform="matrix(0.8,0,0,0.8,154.993,154.976)">
        <path d="M50,16.65L33.35,0L16.65,0L0,16.65L0,33.35L16.65,50L33.35,50L50,33.35L50,16.65Z" style="fill:white;fill-opacity:0.0196078;"/>
    </g>
</svg>
